<svg xmlns="http://www.w3.org/2000/svg" id="Icon_ionic-ios-checkmark-circle-outline" viewBox="0 0 12 12">
    <path fill="#37a450" id="Path_195" d="M16.4 12.744l-.49-.5a.105.105 0 0 0-.078-.033.1.1 0 0 0-.078.033l-3.4 3.424-1.234-1.241a.108.108 0 0 0-.156 0l-.5.5a.111.111 0 0 0 0 .159l1.56 1.56a.493.493 0 0 0 .326.159.517.517 0 0 0 .323-.153l3.732-3.752a.119.119 0 0 0-.005-.156z" class="cls-1" transform="translate(-7.375 -8.375)"/>
    <path fill="#37a450" id="Path_196" d="M9.375 4.183A5.19 5.19 0 1 1 5.7 5.7a5.158 5.158 0 0 1 3.672-1.52m0-.808a6 6 0 1 0 6 6 6 6 0 0 0-6-6z" class="cls-1" transform="translate(-3.375 -3.375)"/>
</svg>
