<svg fill="none" xmlns="http://www.w3.org/2000/svg" viewBox="0 0 24 24">
    <path d="M12 0a12 12 0 1 0 0 24 12 12 0 0 0 0-24zm0 22a10 10 0 1 1 0-20 10 10 0 0 1 0 20z" fill="#EAEAEA"/>
    <path d="M12.066 15.458c-.265 0-.52-.16-.707-.443-.187-.283-.293-.668-.293-1.069V6.97c0-.401.106-.786.293-1.07.188-.283.442-.442.707-.442.266 0 .52.16.707.443.188.283.293.668.293 1.069v6.976c0 .401-.105.786-.293 1.07-.187.283-.441.442-.707.442zM12.066 18.458a1 1 0 1 0 0-2 1 1 0 0 0 0 2z" fill="#EAEAEA"/>
</svg>
