<svg xmlns="http://www.w3.org/2000/svg" viewBox="0 0 34.375 27.5">
    <path fill="#fff" d="M17.187 21.484a7.705 7.705 0 0 1-7.675-7.149L3.878 9.98a17.9 17.9 0 0 0-1.972 2.986 1.738 1.738 0 0 0 0 1.568 17.227 17.227 0 0 0 15.282 9.528 16.683 16.683 0 0 0 4.184-.562l-2.787-2.156a7.742 7.742 0 0 1-1.398.14zM34.043 24.6l-5.938-4.589a17.792 17.792 0 0 0 4.364-5.482 1.738 1.738 0 0 0 0-1.568 17.227 17.227 0 0 0-15.282-9.524 16.551 16.551 0 0 0-7.912 2.025L2.442.181a.859.859 0 0 0-1.207.151L.181 1.689a.859.859 0 0 0 .151 1.206l31.6 24.424a.859.859 0 0 0 1.206-.151l1.055-1.357a.859.859 0 0 0-.15-1.211zm-9.868-7.627l-2.111-1.632A5.089 5.089 0 0 0 15.828 8.8a2.559 2.559 0 0 1 .5 1.515 2.505 2.505 0 0 1-.083.537l-3.953-3.058a7.644 7.644 0 0 1 4.9-1.778 7.73 7.73 0 0 1 7.734 7.734 7.551 7.551 0 0 1-.747 3.229z"/>
</svg>
