<svg xmlns="http://www.w3.org/2000/svg" viewBox="0 0 27.005 24">
    <path d="M18.876 3.9L23.1 8.132a.458.458 0 0 1 0 .647l-10.235 10.24-4.351.481a.912.912 0 0 1-1.008-1.008l.483-4.351L18.229 3.9a.458.458 0 0 1 .647 0zm7.6-1.074L24.183.542a1.834 1.834 0 0 0-2.588 0L19.935 2.2a.458.458 0 0 0 0 .647l4.229 4.229a.458.458 0 0 0 .647 0l1.66-1.66a1.834 1.834 0 0 0 0-2.588zM18 16.234v4.773H3V6h10.775a.576.576 0 0 0 .4-.164l1.875-1.875a.563.563 0 0 0-.4-.961H2.25A2.251 2.251 0 0 0 0 5.253v16.5a2.251 2.251 0 0 0 2.25 2.25h16.5A2.251 2.251 0 0 0 21 21.757v-7.4a.564.564 0 0 0-.961-.4l-1.875 1.875a.576.576 0 0 0-.164.402z" transform="translate(0 -.007)"/>
</svg>
