<svg width="160" height="161" viewBox="0 0 160 161" fill="none" xmlns="http://www.w3.org/2000/svg">
<path d="M43.3333 67.4162C41.8467 67.4162 40.42 67.6429 39 67.8496C39.46 66.3029 39.9333 64.7296 40.6933 63.3162C41.4533 61.2629 42.64 59.4829 43.82 57.6896C44.8067 55.7496 46.5467 54.4362 47.8267 52.7762C49.1667 51.1629 50.9933 50.0895 52.44 48.7495C53.86 47.3495 55.72 46.6495 57.2 45.6629C58.7467 44.7762 60.0933 43.7962 61.5333 43.3295L65.1267 41.8495L68.2867 40.5362L65.0533 27.6162L61.0733 28.5762C59.8 28.8962 58.2467 29.2695 56.48 29.7162C54.6733 30.0495 52.7467 30.9629 50.6 31.7962C48.48 32.7429 46.0267 33.3829 43.7467 34.9029C41.4533 36.3562 38.8067 37.5695 36.4733 39.5162C34.2133 41.5229 31.4867 43.2629 29.4733 45.8162C27.2733 48.2029 25.1 50.7095 23.4133 53.5629C21.46 56.2829 20.1333 59.2695 18.7333 62.2229C17.4667 65.1762 16.4467 68.1962 15.6133 71.1296C14.0333 77.0096 13.3267 82.5962 13.0533 87.3762C12.8267 92.1629 12.96 96.1429 13.24 99.0229C13.34 100.383 13.5267 101.703 13.66 102.616L13.8267 103.736L14 103.696C15.1857 109.235 17.9154 114.325 21.8731 118.377C25.8308 122.43 30.8549 125.279 36.3643 126.595C41.8736 127.911 47.643 127.641 53.005 125.815C58.3671 123.989 63.1027 120.683 66.6641 116.278C70.2254 111.873 72.467 106.55 73.1295 100.925C73.7919 95.2994 72.8482 89.6013 70.4076 84.4897C67.9669 79.3781 64.1289 75.062 59.3377 72.0405C54.5465 69.0191 48.9977 67.4158 43.3333 67.4162ZM116.667 67.4162C115.18 67.4162 113.753 67.6429 112.333 67.8496C112.793 66.3029 113.267 64.7296 114.027 63.3162C114.787 61.2629 115.973 59.4829 117.153 57.6896C118.14 55.7496 119.88 54.4362 121.16 52.7762C122.5 51.1629 124.327 50.0895 125.773 48.7495C127.193 47.3495 129.053 46.6495 130.533 45.6629C132.08 44.7762 133.427 43.7962 134.867 43.3295L138.46 41.8495L141.62 40.5362L138.387 27.6162L134.407 28.5762C133.133 28.8962 131.58 29.2695 129.813 29.7162C128.007 30.0495 126.08 30.9629 123.933 31.7962C121.82 32.7495 119.36 33.3829 117.08 34.9095C114.787 36.3629 112.14 37.5762 109.807 39.5229C107.547 41.5295 104.82 43.2695 102.807 45.8162C100.607 48.2029 98.4334 50.7095 96.7467 53.5629C94.7934 56.2829 93.4667 59.2695 92.0667 62.2229C90.8 65.1762 89.78 68.1962 88.9467 71.1296C87.3667 77.0096 86.66 82.5962 86.3867 87.3762C86.16 92.1629 86.2934 96.1429 86.5734 99.0229C86.6734 100.383 86.86 101.703 86.9934 102.616L87.16 103.736L87.3334 103.696C88.5191 109.235 91.2487 114.325 95.2065 118.377C99.1642 122.43 104.188 125.279 109.698 126.595C115.207 127.911 120.976 127.641 126.338 125.815C131.7 123.989 136.436 120.683 139.997 116.278C143.559 111.873 145.8 106.55 146.463 100.925C147.125 95.2994 146.182 89.6013 143.741 84.4897C141.3 79.3781 137.462 75.062 132.671 72.0405C127.88 69.0191 122.331 67.4158 116.667 67.4162Z" fill="#EAEAEA" fill-opacity="0.6"/>
</svg>
